<svg width="50" height="49" viewBox="0 0 50 49" fill="none" xmlns="http://www.w3.org/2000/svg">
<g clip-path="url(#clip0_4916_27256)">
<path d="M49.8188 26.1312C48.9141 39.1946 36.9823 49.0167 23.165 48.0646C9.34769 47.1124 -0.848 35.7564 0.0556988 22.6916C0.959398 9.62675 11.9259 -0.892242 25.7501 0.059931C39.4765 1.00377 50.6682 13.849 49.8212 26.1308" fill="#64C5E4"/>
<path d="M27.1673 0.212302C26.6123 0.157212 26.0548 0.131079 25.4972 0.134011C12.6331 0.134011 2.94141 11.5579 2.94141 24.4391C2.94141 37.4547 12.3183 48.2621 25.4518 48.2621C27.439 48.2598 29.419 48.0204 31.3499 47.5492C34.9781 46.6973 38.3642 45.0255 41.2497 42.6615C44.1352 40.2974 46.4438 37.3037 47.9992 33.9087C49.3213 30.9278 50.0031 27.7014 50.0002 24.4391C50.0002 11.3128 39.0552 1.22322 27.1653 0.212302" fill="#6BBDAE"/>
<path d="M3.02585 20.1526C0.468058 32.9968 8.26392 45.3508 20.4438 47.7289C32.6237 50.107 44.5713 41.625 47.1354 28.7807C49.6996 15.9365 41.2043 2.89326 29.0254 0.511192C16.8465 -1.87087 5.58511 7.30246 3.02585 20.1511" fill="#007D8F"/>
<path d="M24.4709 45.9889C20.2402 45.99 16.1041 44.7404 12.5857 42.3982C9.06735 40.0559 6.32478 36.7261 4.70484 32.83C3.0849 28.9338 2.66033 24.6463 3.48487 20.5096C4.3094 16.3729 6.34599 12.5729 9.33705 9.59007C12.3281 6.60726 16.1393 4.57566 20.2887 3.7522C24.438 2.92873 28.7392 3.35039 32.6481 4.96384C36.5571 6.5773 39.8983 9.31008 42.2492 12.8166C44.6001 16.3231 45.8551 20.4458 45.8555 24.6634C45.8561 30.3181 43.6035 35.7415 39.5933 39.7407C35.583 43.74 30.1434 45.9874 24.4709 45.9889Z" fill="white"/>
<path d="M36.4916 14.4385H29.1675C27.8292 14.4385 27.6405 14.9731 27.6405 15.7993C27.6405 15.7993 27.6405 27.6509 27.6405 27.6664C27.5527 30.388 26.5371 31.2521 24.5986 31.2521C22.6045 31.2521 21.5913 30.3389 21.547 27.4497C21.547 25.842 21.547 15.7993 21.547 15.7993C21.547 14.9731 21.3593 14.4385 20.0238 14.4385H12.7007V28.5514C12.7007 31.6808 13.3058 33.0003 14.6022 34.3392C16.6134 36.4193 20.1179 37.2994 24.601 37.2994C29.0841 37.2994 32.5868 36.4193 34.596 34.3392C35.8866 33.0003 36.4975 31.6808 36.4975 28.5514L36.4916 14.4385Z" fill="#E22019"/>
</g>
<defs>
<clipPath id="clip0_4916_27256">
<rect width="50" height="48.3173" fill="white"/>
</clipPath>
</defs>
</svg>
