<?xml version="1.0" encoding="UTF-8"?>
<svg id="Calque_2" data-name="Calque 2" xmlns="http://www.w3.org/2000/svg" xmlns:xlink="http://www.w3.org/1999/xlink" viewBox="0 0 783.5 182.42">
  <defs>
    <style>
      .cls-1 {
        clip-path: url(#clippath);
      }

      .cls-2 {
        fill: #7ccad5;
      }

      .cls-3 {
        fill: none;
      }

      .cls-4 {
        fill: #004577;
      }
    </style>
    <clipPath id="clippath">
      <rect class="cls-3" width="783.5" height="182.42"/>
    </clipPath>
  </defs>
  <g id="Calque_1-2" data-name="Calque 1">
    <g class="cls-1">
      <path class="cls-2" d="m56.66,98.73c-6.77,0-13.65-.29-20.47-1.01-.91-.1-1.59-1.09-1.51-2.23.08-1.13.9-1.96,1.78-1.88,18.18,1.94,36.88.71,52.78-.75,21.69-2.04,38.82-1.92,53.91.35.9.14,1.55,1.16,1.44,2.3-.11,1.13-.92,1.94-1.84,1.8-14.87-2.24-31.79-2.35-53.27-.33-10.09.92-21.31,1.76-32.83,1.76"/>
      <path class="cls-2" d="m56.72,89.18c-7.02,0-14.16-.31-21.24-1.1-.45-.05-.79-.55-.75-1.12.04-.57.46-1.02.9-.93,18.51,2.07,37.53.83,53.68-.66,21.96-2.08,39.29-1.93,54.54.46.45.07.77.59.72,1.15-.06.56-.47.94-.92.89-15.13-2.38-32.36-2.52-54.21-.45-10.06.93-21.23,1.76-32.71,1.76"/>
      <path class="cls-2" d="m56.62,109.97c-6.53,0-13.15-.26-19.72-.93-1.36-.14-2.38-1.63-2.27-3.33.11-1.7,1.31-2.96,2.67-2.83,17.87,1.81,36.26.6,51.9-.83,21.42-2,38.36-1.92,53.29.24,1.36.2,2.33,1.73,2.17,3.43-.15,1.7-1.39,2.91-2.75,2.72-14.61-2.12-31.25-2.19-52.35-.21-10.12.92-21.38,1.75-32.94,1.75"/>
      <path class="cls-4" d="m91.7,182.14C41.28,182.14.27,141.35.27,91.21S41.28.27,91.7.27s91.42,40.79,91.42,90.93-41.01,90.93-91.42,90.93m0-177.24C43.85,4.9,4.93,43.62,4.93,91.21s38.93,86.31,86.77,86.31,86.77-38.72,86.77-86.31S139.54,4.9,91.7,4.9"/>
      <path class="cls-4" d="m91.7.55c50.26,0,91.14,40.67,91.14,90.66s-40.89,90.66-91.14,90.66S.55,141.2.55,91.21,41.44.55,91.7.55m0,177.24c48,0,87.05-38.84,87.05-86.58S139.69,4.63,91.7,4.63,4.65,43.47,4.65,91.21s39.05,86.58,87.05,86.58M91.7,0C41.13,0,0,40.91,0,91.21s41.13,91.21,91.7,91.21,91.7-40.92,91.7-91.21S142.26,0,91.7,0m0,177.24c-47.69,0-86.49-38.59-86.49-86.03S44,5.18,91.7,5.18s86.49,38.59,86.49,86.03-38.8,86.03-86.49,86.03"/>
      <path class="cls-4" d="m58.83,127.4c-1.12,0-2.04-.91-2.04-2.02v-58.83h-15.65c-1.01,0-1.84-.86-1.84-1.93s.81-1.83,1.84-1.83h35.37c1.1,0,1.94.79,1.94,1.83s-.85,1.93-1.94,1.93h-15.55v58.83c0,1.14-.94,2.02-2.13,2.02"/>
      <path class="cls-4" d="m76.52,63.07c.98,0,1.66.68,1.66,1.55s-.68,1.65-1.66,1.65h-15.83v59.1c0,.97-.78,1.75-1.86,1.75-.98,0-1.76-.78-1.76-1.75v-59.1h-15.93c-.88,0-1.56-.78-1.56-1.65s.68-1.55,1.56-1.55h35.38Zm0-.55h-35.38c-1.19,0-2.12.92-2.12,2.11s.95,2.2,2.12,2.2h15.38v58.55c0,1.27,1.04,2.3,2.31,2.3,1.35,0,2.41-1.01,2.41-2.3v-58.55h15.28c1.24,0,2.21-.97,2.21-2.2s-.95-2.11-2.21-2.11"/>
      <path class="cls-4" d="m124.14,127.4c-1.12,0-2.03-.91-2.03-2.02v-29.37h-28.57v29.37c0,1.15-.92,2.02-2.13,2.02-1.12,0-2.03-.91-2.03-2.02v-60.95c0-1.12.91-2.02,2.03-2.02,1.2,0,2.13.89,2.13,2.02v27.82h28.57v-27.82c0-1.12.91-2.02,2.03-2.02,1.2,0,2.13.89,2.13,2.02v60.95c0,1.14-.94,2.02-2.13,2.02"/>
      <path class="cls-4" d="m124.14,62.68c1.07,0,1.86.78,1.86,1.75v60.95c0,.97-.78,1.75-1.86,1.75-.98,0-1.76-.78-1.76-1.75v-29.65h-29.12v29.65c0,.97-.78,1.75-1.86,1.75-.98,0-1.76-.78-1.76-1.75v-60.95c0-.97.78-1.75,1.76-1.75,1.08,0,1.86.78,1.86,1.75v28.09h29.12v-28.09c0-.97.78-1.75,1.76-1.75m0-.55c-1.28,0-2.31,1.03-2.31,2.3v27.54h-28.02v-27.54c0-1.29-1.06-2.3-2.41-2.3-1.28,0-2.31,1.03-2.31,2.3v60.95c0,1.27,1.04,2.3,2.31,2.3,1.35,0,2.41-1.01,2.41-2.3v-29.1h28.02v29.1c0,1.27,1.04,2.3,2.31,2.3,1.35,0,2.41-1.01,2.41-2.3v-60.95c0-1.29-1.06-2.3-2.41-2.3"/>
      <path class="cls-4" d="m9.16,66.56c-1.04,0-1.89-.85-1.89-1.88s.85-1.88,1.89-1.88h33.14c1.04,0,1.89.85,1.89,1.88s-.85,1.88-1.89,1.88H9.16Z"/>
      <path class="cls-4" d="m42.3,63.07c.89,0,1.61.72,1.61,1.61s-.72,1.61-1.61,1.61H9.16c-.89,0-1.61-.72-1.61-1.61s.72-1.61,1.61-1.61h33.14Zm0-.55H9.16c-1.19,0-2.17.97-2.17,2.16s.97,2.16,2.17,2.16h33.14c1.19,0,2.17-.97,2.17-2.16s-.97-2.16-2.17-2.16"/>
      <path class="cls-4" d="m124.42,127.55c-1.28,0-2.32-.92-2.32-2.04s1.04-2.04,2.32-2.04h47.98c1.28,0,2.32.92,2.32,2.04s-1.04,2.04-2.32,2.04h-47.98Z"/>
      <path class="cls-4" d="m172.41,123.74c1.13,0,2.04.79,2.04,1.77s-.91,1.77-2.04,1.77h-47.98c-1.13,0-2.04-.79-2.04-1.77s.91-1.77,2.04-1.77h47.98Zm0-.55h-47.98c-1.43,0-2.59,1.04-2.59,2.32s1.16,2.32,2.59,2.32h47.98c1.43,0,2.59-1.04,2.59-2.32s-1.16-2.32-2.59-2.32"/>
      <path class="cls-4" d="m245.54,110.14c-1.38,0-2.5-1.12-2.5-2.49V33.05h-19.91c-1.25,0-2.26-1.06-2.26-2.37s.99-2.25,2.26-2.25h44.82c1.36,0,2.38.97,2.38,2.25s-1.05,2.37-2.38,2.37h-19.78v74.6c0,1.42-1.13,2.49-2.63,2.49"/>
      <path class="cls-4" d="m267.95,28.71c1.24,0,2.1.86,2.1,1.97s-.87,2.09-2.1,2.09h-20.06v74.88c0,1.23-.99,2.22-2.35,2.22-1.24,0-2.23-.98-2.23-2.22V32.77h-20.18c-1.12,0-1.98-.98-1.98-2.09s.87-1.97,1.98-1.97h44.82Zm0-.55h-44.82c-1.42,0-2.53,1.11-2.53,2.52s1.14,2.64,2.53,2.64h19.63v74.33c0,1.53,1.25,2.77,2.78,2.77,1.63,0,2.91-1.22,2.91-2.77V33.32h19.5c1.49,0,2.66-1.16,2.66-2.64s-1.14-2.52-2.66-2.52"/>
      <path class="cls-4" d="m337.28,110.14c-1.38,0-2.5-1.12-2.5-2.49v-37.28h-36.34v37.28c0,1.42-1.13,2.49-2.63,2.49-1.38,0-2.5-1.12-2.5-2.49V30.43c0-1.37,1.12-2.49,2.5-2.49,1.5,0,2.63,1.07,2.63,2.49v35.31h36.34V30.43c0-1.37,1.12-2.49,2.5-2.49,1.5,0,2.63,1.07,2.63,2.49v77.21c0,1.42-1.13,2.49-2.63,2.49"/>
      <path class="cls-4" d="m337.28,28.22c1.36,0,2.35.99,2.35,2.22v77.22c0,1.23-.99,2.22-2.35,2.22-1.24,0-2.23-.98-2.23-2.22v-37.56h-36.9v37.56c0,1.23-.99,2.22-2.35,2.22-1.24,0-2.23-.98-2.23-2.22V30.43c0-1.23.99-2.22,2.23-2.22,1.36,0,2.35.99,2.35,2.22v35.59h36.9V30.43c0-1.23.99-2.22,2.23-2.22m0-.55c-1.53,0-2.78,1.24-2.78,2.77v35.04h-35.79V30.43c0-1.55-1.28-2.77-2.91-2.77-1.53,0-2.78,1.24-2.78,2.77v77.22c0,1.53,1.25,2.77,2.78,2.77,1.63,0,2.91-1.22,2.91-2.77v-37.01h35.79v37.01c0,1.53,1.25,2.77,2.78,2.77,1.63,0,2.9-1.22,2.9-2.77V30.43c0-1.55-1.28-2.77-2.9-2.77"/>
      <path class="cls-4" d="m420.48,110.14c-1.11,0-1.99-.67-2.37-1.79l-6.01-18.53h-36.62l-6,18.53c-.4,1.19-1.24,1.79-2.49,1.79-1.43,0-2.51-1.02-2.51-2.37,0-.66.25-1.41.63-2.55l24.14-73.89c.74-2.34,2.12-3.39,4.47-3.39,2.99,0,3.92,1.63,4.47,3.4l24.27,73.89c.38,1.15.63,1.9.63,2.55,0,1.4-1.39,2.37-2.63,2.37m-9.79-24.81l-16.95-52.53-16.83,52.53h33.78Z"/>
      <path class="cls-4" d="m393.74,28.22c2.6,0,3.59,1.23,4.21,3.2l24.27,73.89c.37,1.11.62,1.85.62,2.46,0,1.23-1.24,2.09-2.35,2.09-.87,0-1.73-.49-2.11-1.6l-6.07-18.72h-37.02l-6.07,18.72c-.37,1.11-1.11,1.6-2.23,1.6-1.24,0-2.23-.86-2.23-2.09,0-.61.25-1.35.62-2.46l24.14-73.89c.62-1.97,1.73-3.2,4.21-3.2m-17.21,57.39h34.54l-17.21-53.32h-.25l-17.08,53.32m17.21-57.94c-2.46,0-3.97,1.14-4.74,3.59l-24.14,73.89c-.39,1.16-.65,1.93-.65,2.63,0,1.51,1.2,2.64,2.78,2.64,1.39,0,2.31-.67,2.75-1.98l5.95-18.34h36.21l5.94,18.33c.41,1.23,1.42,1.98,2.63,1.98,1.37,0,2.9-1.09,2.9-2.64,0-.7-.26-1.47-.64-2.63l-24.27-73.89c-.56-1.77-1.55-3.58-4.74-3.58m-16.45,57.39l16.45-51.35,16.57,51.35h-33.03Z"/>
      <path class="cls-4" d="m450.08,109.65c-1.43,0-2.51-1.13-2.51-2.61V30.43c0-1.37,1.12-2.49,2.51-2.49,1.5,0,2.63,1.07,2.63,2.49v74.6h32.53c1.33,0,2.38,1.04,2.38,2.37,0,1.24-1.07,2.25-2.38,2.25h-35.16Z"/>
      <path class="cls-4" d="m450.08,28.22c1.36,0,2.35.99,2.35,2.22v74.88h32.81c1.12,0,2.11.86,2.11,2.09,0,1.11-.99,1.97-2.11,1.97h-35.16c-1.24,0-2.23-.98-2.23-2.34V30.43c0-1.23.99-2.22,2.23-2.22m0-.55c-1.53,0-2.78,1.24-2.78,2.77v76.6c0,1.62,1.22,2.89,2.78,2.89h35.16c1.47,0,2.66-1.13,2.66-2.52,0-1.48-1.17-2.64-2.66-2.64h-32.25V30.43c0-1.55-1.28-2.77-2.91-2.77"/>
      <path class="cls-4" d="m559.28,110.14c-1.11,0-1.99-.67-2.37-1.79l-6.01-18.53h-36.62l-6,18.53c-.4,1.19-1.24,1.79-2.49,1.79-1.43,0-2.51-1.02-2.51-2.37,0-.65.25-1.4.62-2.52l24.15-73.92c.74-2.34,2.12-3.39,4.47-3.39,2.99,0,3.92,1.63,4.47,3.4l24.27,73.89c.37,1.09.63,1.89.63,2.55,0,1.4-1.38,2.37-2.63,2.37m-9.79-24.81l-16.95-52.53-16.83,52.53h33.79Z"/>
      <path class="cls-4" d="m532.53,28.22c2.6,0,3.59,1.23,4.21,3.2l24.27,73.89c.37,1.11.62,1.85.62,2.46,0,1.23-1.24,2.09-2.35,2.09-.87,0-1.73-.49-2.11-1.6l-6.07-18.72h-37.02l-6.07,18.72c-.37,1.11-1.11,1.6-2.23,1.6-1.24,0-2.23-.86-2.23-2.09,0-.61.25-1.35.62-2.46l24.14-73.89c.62-1.97,1.73-3.2,4.21-3.2m-17.21,57.39h34.54l-17.21-53.32h-.25l-17.08,53.32m17.21-57.94c-2.46,0-3.97,1.14-4.74,3.59l-24.14,73.89c-.39,1.16-.65,1.93-.65,2.63,0,1.51,1.2,2.64,2.78,2.64,1.39,0,2.31-.67,2.75-1.98l5.95-18.34h36.21l5.94,18.33c.41,1.23,1.42,1.98,2.63,1.98,1.37,0,2.9-1.09,2.9-2.64,0-.7-.26-1.47-.64-2.63l-24.27-73.89c-.56-1.77-1.55-3.58-4.74-3.58m-16.45,57.39l16.45-51.35,16.57,51.35h-33.03Z"/>
      <path class="cls-4" d="m584.04,109.65c-1.91,0-3.25-1.38-3.25-3.35,0-.54.14-1.08.4-1.6l42.23-71.64h-35.17l-1.21,10.84c-.13,1.16-1.03,2.34-2.5,2.34-.56,0-1.08-.22-1.46-.63-.51-.54-.75-1.39-.68-2.38l1.12-12.32c.14-1.5,1.12-2.47,2.5-2.47h39.99c1.82,0,3.25,1.42,3.25,3.23,0,.64-.12,1.17-.4,1.72l-42.24,71.64h40.75c1.33,0,2.38,1.04,2.38,2.37,0,1.24-1.07,2.25-2.38,2.25h-43.33Z"/>
      <path class="cls-4" d="m626.01,28.71c1.61,0,2.97,1.23,2.97,2.96,0,.62-.12,1.11-.37,1.6l-42.47,72.04h41.23c1.11,0,2.11.86,2.11,2.09,0,1.11-.99,1.97-2.11,1.97h-43.33c-1.73,0-2.97-1.23-2.97-3.08,0-.49.12-.99.37-1.48l42.47-72.04h-35.91l-1.24,11.09c-.12,1.11-.99,2.09-2.23,2.09-1.12,0-1.98-.98-1.86-2.71l1.11-12.31c.12-1.36.99-2.22,2.23-2.22h39.99Zm0-.55h-39.99c-1.54,0-2.63,1.07-2.78,2.72l-1.11,12.32c-.08,1.08.19,2,.75,2.59.43.46,1.02.71,1.66.71,1.44,0,2.61-1.09,2.78-2.58l1.18-10.59h34.44l-41.98,71.21c-.3.6-.45,1.18-.45,1.76,0,2.14,1.45,3.63,3.52,3.63h43.33c1.47,0,2.66-1.13,2.66-2.52,0-1.48-1.17-2.64-2.66-2.64h-40.26l41.98-71.21c.31-.62.45-1.2.45-1.88,0-1.97-1.55-3.51-3.52-3.51"/>
      <path class="cls-4" d="m679.5,110.88c-15.14,0-24.55-10.3-24.55-26.88V30.43c0-1.33,1.17-2.49,2.51-2.49,1.42,0,2.63,1.14,2.63,2.49v53.57c0,14.23,7.08,22.38,19.41,22.38s19.53-8.16,19.53-22.38V30.43c0-1.37,1.12-2.49,2.51-2.49,1.47,0,2.63,1.09,2.63,2.49v53.57c0,16.58-9.45,26.88-24.67,26.88"/>
      <path class="cls-4" d="m701.54,28.22c1.36,0,2.35.99,2.35,2.22v53.57c0,14.9-8.17,26.6-24.39,26.6s-24.27-11.7-24.27-26.6V30.43c0-1.23,1.12-2.22,2.23-2.22,1.24,0,2.35.99,2.35,2.22v53.57c0,14.29,7.18,22.66,19.69,22.66s19.81-8.37,19.81-22.66V30.43c0-1.23.99-2.22,2.23-2.22m0-.55c-1.53,0-2.78,1.24-2.78,2.77v53.57c0,14.05-7.02,22.11-19.25,22.11s-19.13-8.06-19.13-22.11V30.43c0-1.5-1.33-2.77-2.91-2.77-1.48,0-2.78,1.29-2.78,2.77v53.57c0,16.49,9.74,27.15,24.82,27.15s24.94-10.41,24.94-27.15V30.43c0-1.55-1.28-2.77-2.9-2.77"/>
      <path class="cls-4" d="m779.66,110.14c-1.17,0-2.09-.73-2.36-1.4l-16.24-33.9c-2.05.39-3.81.58-5.54.58h-14.83v32.24c0,1.35-1.2,2.49-2.63,2.49s-2.5-1.12-2.5-2.49V30.93c0-1.37,1.12-2.49,2.5-2.49h17.58c13.72,0,23.68,9.85,23.68,23.43,0,9.64-5.05,17.63-13.52,21.44l15.72,32.38c.26.51.65,1.29.65,2.22,0,1.36-.98,2.25-2.5,2.25m-24.14-39.22c10.99,0,18.67-7.84,18.67-19.06s-7.68-18.81-18.67-18.81h-14.83v37.87h14.83Z"/>
      <path class="cls-4" d="m755.64,28.71c12.75,0,23.4,9.11,23.4,23.15,0,10.22-5.7,17.85-13.62,21.3l15.85,32.64c.25.49.62,1.23.62,2.09,0,1.23-.87,1.97-2.23,1.97-.99,0-1.86-.62-2.11-1.23l-16.34-34.11c-1.86.37-3.72.62-5.7.62h-15.1v32.51c0,1.23-1.12,2.22-2.35,2.22s-2.23-.98-2.23-2.22V30.93c0-1.23.99-2.22,2.23-2.22h17.58Zm-15.23,42.49h15.1c10.4,0,18.94-7.39,18.94-19.33s-8.54-19.09-18.94-19.09h-15.1v38.42m15.23-43.04h-17.58c-1.53,0-2.78,1.24-2.78,2.77v76.72c0,1.52,1.25,2.77,2.78,2.77s2.91-1.27,2.91-2.77v-31.96h14.55c1.69,0,3.41-.17,5.38-.54l16.16,33.73c.35.87,1.47,1.54,2.6,1.54,1.69,0,2.78-.99,2.78-2.52,0-1-.43-1.84-.68-2.34l-15.6-32.12c8.42-3.9,13.43-11.92,13.43-21.57,0-13.73-10.08-23.7-23.95-23.7m-14.67,5.16h14.55c10.83,0,18.39,7.62,18.39,18.54s-7.56,18.78-18.39,18.78h-14.55v-37.32Z"/>
      <path class="cls-2" d="m244.79,161.45c-1.46,2.18-4.23,3.24-6.59,3.24-4.38,0-8.34-3.38-8.34-8.2s3.65-8.06,8.32-8.06c5.06,0,6.46,4.04,6.46,6.71,0,.25-.02.51-.03.73h-10.4c.07,4.11,1.87,7.38,5.28,7.38,1.7,0,3.36-.79,4.33-2.58l.97.78Zm-4.43-6.64c-.05-2.38-.87-5-2.75-5.39-1.97.08-3.19,2.28-3.38,5.39h6.13Z"/>
      <path class="cls-2" d="m261.52,150.9c-1.37-1.01-2.7-1.47-3.67-1.47-1.26,0-2.02.69-2.02,1.76,0,.9.48,1.74,3.02,3.43,2.86,1.88,3.91,3.14,3.91,5.19,0,2.99-2.48,4.88-5.45,4.88-1.82,0-3.5-.71-4.77-1.74l.66-1.05c1.05.94,2.33,1.76,3.69,1.76,1.43,0,2.31-.88,2.31-2.23,0-1.02-.43-1.74-2.89-3.46-2.34-1.62-3.5-3.06-3.5-5.09,0-2.75,2.21-4.44,4.83-4.44,1.53,0,3.26.59,4.54,1.44l-.65,1.03Z"/>
      <path class="cls-2" d="m285.55,161.45c-1.46,2.18-4.23,3.24-6.59,3.24-4.33,0-8.29-3.41-8.29-8.19s3.74-8.06,8.58-8.06c2.02,0,4.15.59,5.42,1.25l-1.19,3.45c-1.22-1.2-3.25-2.99-4.65-3.7-2.53.17-3.82,2.57-3.82,6.14,0,4.21,1.78,7.69,5.25,7.69,1.68,0,3.35-.78,4.33-2.59l.97.78Z"/>
      <path class="cls-2" d="m304.33,162.68c-1.22,1.17-2.9,2.01-4.89,2.01-3.77,0-6.71-2.97-6.71-7.76s3.11-8.5,7.14-8.5c1.68,0,3.07.66,4.35,1.61v-1.27h4.16v15.58h-3.43l-.61-1.67Zm-.12-11.54c-1.17-.57-2.41-.98-3.3-1.06-2.26.54-3.81,2.86-3.81,6.56s1.48,6.22,4.13,6.22c1.19,0,2.19-.57,2.97-1.43v-10.28Z"/>
      <polygon class="cls-2" points="318.08 140.7 322.19 140.36 322.19 164.35 318.08 164.35 318.08 140.7"/>
      <path class="cls-2" d="m346.1,161.45c-1.46,2.18-4.23,3.24-6.59,3.24-4.38,0-8.34-3.38-8.34-8.2s3.65-8.06,8.32-8.06c5.06,0,6.46,4.04,6.46,6.71,0,.25-.02.51-.03.73h-10.4c.07,4.11,1.87,7.38,5.28,7.38,1.7,0,3.36-.79,4.33-2.58l.97.78Zm-4.43-6.64c-.05-2.38-.87-5-2.75-5.39-1.97.08-3.19,2.28-3.38,5.39h6.13Z"/>
      <path class="cls-2" d="m362.83,150.9c-1.37-1.01-2.7-1.47-3.67-1.47-1.26,0-2.02.69-2.02,1.76,0,.9.48,1.74,3.02,3.43,2.86,1.88,3.91,3.14,3.91,5.19,0,2.99-2.48,4.88-5.45,4.88-1.82,0-3.5-.71-4.77-1.74l.66-1.05c1.05.94,2.33,1.76,3.69,1.76,1.43,0,2.31-.88,2.31-2.23,0-1.02-.43-1.74-2.89-3.46-2.34-1.62-3.5-3.06-3.5-5.09,0-2.75,2.21-4.44,4.83-4.44,1.53,0,3.26.59,4.54,1.44l-.65,1.03Z"/>
      <path class="cls-2" d="m387.29,140.7l4.13-.34v9.8c.92-.85,2.38-1.72,4.55-1.72,4.2,0,6.85,3.24,6.85,7.6,0,5.2-3.74,8.65-7.31,8.65-1.66,0-3.26-.74-4.35-1.55l-.44,1.22h-3.43v-23.66Zm4.13,21.49c.76.42,1.77.74,2.63.81,2.41-.44,4.38-2.67,4.38-6.88,0-3.52-1.41-5.81-4.26-5.81-1.22,0-2.13.44-2.75,1.05v10.83Z"/>
      <path class="cls-2" d="m413.87,141.64c1.26,0,2.21.93,2.21,2.2s-.95,2.21-2.21,2.21-2.23-.93-2.23-2.21.97-2.2,2.23-2.2m-2.09,7.13l4.16-.34v15.92h-4.16v-15.58Z"/>
      <path class="cls-2" d="m439.84,161.45c-1.46,2.18-4.23,3.24-6.59,3.24-4.38,0-8.34-3.38-8.34-8.2s3.65-8.06,8.32-8.06c5.06,0,6.46,4.04,6.46,6.71,0,.25-.02.51-.03.73h-10.4c.07,4.11,1.87,7.38,5.28,7.38,1.7,0,3.36-.79,4.33-2.58l.97.78Zm-4.43-6.64c-.05-2.38-.87-5-2.75-5.39-1.97.08-3.19,2.28-3.38,5.39h6.13Z"/>
      <path class="cls-2" d="m448.83,148.77l3.23-.34.78,2.18c1.72-1.45,3.48-2.18,5.47-2.18,4.4,0,4.4,3.55,4.4,5.16v10.76h-4.16v-10.95c0-.96-.02-3.03-2.51-3.03-1.24,0-2.26.51-3.06,1.33v12.64h-4.14v-15.58Z"/>
      <rect class="cls-2" x="471.58" y="156.04" width="9.26" height="1.11"/>
      <path class="cls-2" d="m503.92,161.45c-1.46,2.18-4.23,3.24-6.59,3.24-4.38,0-8.34-3.38-8.34-8.2s3.65-8.06,8.32-8.06c5.06,0,6.46,4.04,6.46,6.71,0,.25-.02.51-.03.73h-10.4c.07,4.11,1.87,7.38,5.28,7.38,1.7,0,3.36-.79,4.33-2.58l.97.78Zm-8.2-20.75h2.96l3.14,5.53h-4.11l-1.99-3.87-1.39,2.38c-.31.52-.68,1.27-.8,1.49h-1.19l3.38-5.53Zm3.77,14.11c-.05-2.38-.87-5-2.75-5.39-1.97.08-3.19,2.28-3.38,5.39h6.13Z"/>
      <path class="cls-2" d="m521.87,150.02c-.53-.04-2.9-.1-4.43-.14v11.48c0,.71.25,2.01,1.84,2.01.87,0,1.61-.44,2.29-1.02l.59,1.03c-1.32.81-2.89,1.3-4.43,1.3-3.36,0-4.45-2-4.45-4.55v-10.28h-2v-1.1h2v-1.94l4.16-3.73v5.68h4.43v1.25Z"/>
      <path class="cls-2" d="m530.37,148.77l3.21-.34.85,3.04c1.46-1.84,3.94-2.92,5.98-3.04l-.6,4.18c-1.27-.2-2.61-.3-3.72-.3-.61,0-1.14.02-1.56.08v11.96h-4.16v-15.58Z"/>
      <path class="cls-2" d="m562.13,161.45c-1.46,2.18-4.23,3.24-6.59,3.24-4.38,0-8.34-3.38-8.34-8.2s3.65-8.06,8.32-8.06c5.06,0,6.46,4.04,6.46,6.71,0,.25-.02.51-.03.73h-10.4c.07,4.11,1.87,7.38,5.28,7.38,1.7,0,3.36-.79,4.33-2.58l.97.78Zm-4.43-6.64c-.05-2.38-.87-5-2.75-5.39-1.97.08-3.19,2.28-3.38,5.39h6.13Z"/>
      <path class="cls-2" d="m600.47,164.35l-1.58-1.86c-1.8,1.45-4.01,2.33-6.54,2.33-4.2,0-7.7-2.42-7.7-6.25,0-3.03,2.21-5.12,5.52-6.56-1.09-1.57-2.16-3.67-2.16-5.81,0-3.12,2.26-5.98,6.47-5.98,3.5,0,6.13,2.03,6.13,5.1s-2.61,4.8-5.79,5.8l.41.49,5.71,6.91c1.07-1.77,1.72-3.84,1.85-6.12l1.28.03c-.25,2.47-1.09,4.9-2.41,6.95l4.09,4.97h-5.28Zm-9.04-10.71c-.2-.24-.43-.52-.66-.83-1.36.78-1.94,2.2-1.94,4.04,0,3.65,2.19,6.23,5.45,6.23,1.51,0,2.8-.56,3.93-1.42l-6.78-8.03Zm2.79-3.28c1.77-.96,2.92-2.86,2.92-5.09,0-2.5-1.36-4.02-3.28-4.02-1.61,0-2.75,1.06-2.75,2.89s1.29,3.92,3.11,6.22"/>
      <path class="cls-2" d="m637.32,150.02c-.53-.04-2.9-.1-4.43-.14v11.48c0,.71.25,2.01,1.84,2.01.87,0,1.61-.44,2.29-1.02l.6,1.03c-1.33.81-2.89,1.3-4.43,1.3-3.37,0-4.45-2-4.45-4.55v-10.28h-2v-1.1h2v-1.94l4.16-3.73v5.68h4.43v1.25Z"/>
      <path class="cls-2" d="m655.56,153.4c0-1.22-.17-3.03-2.5-3.03-1.28,0-2.31.51-3.11,1.35v12.62h-4.11v-23.66l4.11-.34v10.19c1.68-1.4,3.4-2.11,5.37-2.11,4.4,0,4.4,3.55,4.4,5.15v10.76h-4.16v-10.95Z"/>
      <path class="cls-2" d="m680.1,162.68c-1.22,1.17-2.9,2.01-4.89,2.01-3.77,0-6.71-2.97-6.71-7.76s3.11-8.5,7.14-8.5c1.68,0,3.07.66,4.35,1.61v-1.27h4.16v15.58h-3.43l-.61-1.67Zm-.12-11.54c-1.17-.57-2.41-.98-3.3-1.06-2.26.54-3.81,2.86-3.81,6.56s1.48,6.22,4.13,6.22c1.19,0,2.19-.57,2.97-1.43v-10.28Z"/>
      <polygon class="cls-2" points="693.85 140.7 697.96 140.36 697.96 164.35 693.85 164.35 693.85 140.7"/>
      <path class="cls-2" d="m718.54,162.68c-1.22,1.17-2.9,2.01-4.89,2.01-3.77,0-6.71-2.97-6.71-7.76s3.11-8.5,7.14-8.5c1.68,0,3.07.66,4.35,1.61v-1.27h4.16v15.58h-3.43l-.61-1.67Zm-.12-11.54c-1.17-.57-2.41-.98-3.3-1.06-2.26.54-3.81,2.86-3.81,6.56s1.48,6.22,4.13,6.22c1.19,0,2.19-.57,2.97-1.43v-10.28Z"/>
      <path class="cls-2" d="m740.02,150.9c-1.37-1.01-2.7-1.47-3.67-1.47-1.26,0-2.02.69-2.02,1.76,0,.9.48,1.74,3.02,3.43,2.86,1.88,3.91,3.14,3.91,5.19,0,2.99-2.48,4.88-5.45,4.88-1.82,0-3.5-.71-4.77-1.74l.66-1.05c1.05.94,2.33,1.76,3.69,1.76,1.43,0,2.31-.88,2.31-2.23,0-1.02-.43-1.74-2.89-3.46-2.34-1.62-3.5-3.06-3.5-5.09,0-2.75,2.21-4.44,4.83-4.44,1.53,0,3.26.59,4.54,1.44l-.65,1.03Z"/>
      <path class="cls-2" d="m757.83,150.9c-1.37-1.01-2.7-1.47-3.67-1.47-1.26,0-2.02.69-2.02,1.76,0,.9.48,1.74,3.02,3.43,2.86,1.88,3.91,3.14,3.91,5.19,0,2.99-2.48,4.88-5.45,4.88-1.82,0-3.5-.71-4.77-1.74l.66-1.05c1.05.94,2.33,1.76,3.69,1.76,1.43,0,2.31-.88,2.31-2.23,0-1.02-.43-1.74-2.89-3.46-2.34-1.62-3.5-3.06-3.5-5.09,0-2.75,2.21-4.44,4.83-4.44,1.53,0,3.26.59,4.54,1.44l-.65,1.03Z"/>
      <path class="cls-2" d="m766.98,156.56c0-4.73,3.87-8.13,8.26-8.13s8.26,3.4,8.26,8.13-3.87,8.13-8.26,8.13-8.26-3.4-8.26-8.13m8.6,7.15c2.43-.42,3.57-2.89,3.57-6.34,0-4.19-1.65-7.65-4.42-7.99-2.38.49-3.4,2.84-3.4,6.45,0,4.19,1.31,7.62,4.25,7.87"/>
    </g>
  </g>
</svg>